<svg width="108" height="123" viewBox="0 0 108 123" fill="none" xmlns="http://www.w3.org/2000/svg">
<path d="M54.4887 0.88269L67.2825 8.73736L60.0087 12.6647L54.4887 9.76936L9.035 36.4007V66.2427L45.7487 88.23L38.1875 92.3007L0.869995 69.74V32.1867L54.4887 0.88269Z" fill="#4CFAEF"/>
<path d="M72.975 12.5214L19.6725 42.6787V63.9494L26.8025 67.9914V46.606L72.975 21.2647L98.045 35.3974V41.0734L106.066 45.4594V31.1834L72.975 12.5214Z" fill="#4CFAEF"/>
<path d="M53.425 122.859L40.6312 115.005L47.905 111.077L53.425 114.001L98.9075 87.3414V57.4994L62.165 35.5407L69.755 31.47L107.044 54.0307V91.584L53.425 122.859Z" fill="#4CFAEF"/>
<path d="M34.9388 111.249L88.2988 81.1207V59.85L81.1688 55.7794V77.1647L34.9388 102.506L9.86878 88.3734V82.6974L1.84753 78.34V92.5874L34.9388 111.249Z" fill="#4CFAEF"/>
<path d="M56.8008 42L60.5709 44.6635L58.4274 45.9953L56.8008 45.0135L43.4061 54.0442V64.1637L54.2252 71.6196L51.997 73L41 65.3496V52.6152L56.8008 42Z" fill="#4CFAEF"/>
<path d="M62.2485 45.9467L46.5409 56.1731V63.386L48.642 64.7567V57.5049L62.2485 48.9116L69.6363 53.704V55.6287L72 57.116V52.275L62.2485 45.9467Z" fill="#4CFAEF"/>
<path d="M56.1992 83L52.4291 80.3356L54.5726 79.0035L56.1992 79.9953L69.6024 70.952V60.8294L58.7748 53.3808L61.0115 52L72 59.6528V72.3912L56.1992 83Z" fill="#4CFAEF"/>
<path d="M50.7516 79.0618L66.4761 68.842V61.6268L64.375 60.246V67.5001L50.7516 76.096L43.3638 71.3021V69.3768L41 67.8987V72.7315L50.7516 79.0618Z" fill="#4CFAEF"/>
<path d="M57.1164 55L58.5758 55.9095L57.7461 56.3642L57.1164 56.029L51.9314 59.1127V62.5681L56.1194 65.114L55.2569 65.5854L51 62.973V58.6247L57.1164 55Z" fill="#4CFAEF"/>
<path d="M59.2252 56.3477L53.1449 59.8396V62.3025L53.9582 62.7706V60.2943L59.2252 57.3601L62.085 58.9965V59.6537L63 60.1616V58.5085L59.2252 56.3477Z" fill="#4CFAEF"/>
<path d="M56.8836 69.1708L55.4242 68.261L56.2539 67.8061L56.8836 68.1448L62.0719 65.0568V61.6003L57.8806 59.0569L58.7464 58.5854L63 61.1985V65.5482L56.8836 69.1708Z" fill="#4CFAEF"/>
<path d="M54.7748 67.8261L60.8617 64.3363V61.8726L60.0484 61.4011V63.8781L54.7748 66.8133L51.915 65.1764V64.519L51 64.0143V65.6645L54.7748 67.8261Z" fill="#4CFAEF"/>
</svg>
