<svg width="108" height="123" viewBox="0 0 108 123" fill="none" xmlns="http://www.w3.org/2000/svg">
<path d="M54.4887 0.88269L67.2825 8.73736L60.0087 12.6647L54.4887 9.76936L9.035 36.4007V66.2427L45.7487 88.23L38.1875 92.3007L0.869995 69.74V32.1867L54.4887 0.88269Z" fill="#4CFAEF"/>
<path d="M72.975 12.5214L19.6725 42.6787V63.9494L26.8025 67.9914V46.606L49 34L72.975 21.2647L98.045 35.3974V41.0734L106.066 45.4594V31.1834L72.975 12.5214Z" fill="#4CFAEF"/>
<path d="M53.425 122.859L40.6312 115.005L47.905 111.077L53.425 114.001L98.9075 87.3414V57.4994L62.165 35.5407L69.755 31.47L107.044 54.0307V91.584L53.425 122.859Z" fill="#4CFAEF"/>
<path d="M34.9388 111.249L88.2988 81.1207V59.85L81.1688 55.7794V77.1647L34.9388 102.506L9.86878 88.3734V82.6974L1.84753 78.34V92.5874L34.9388 111.249Z" fill="#4CFAEF"/>
</svg>
